<svg
  height="48"
  viewBox="0 0 512 512"
  width="48"
  xmlns="http://www.w3.org/2000/svg"
>
  <path
    d="m256 125.333a8 8 0 0 1 -8-8v-5.333a24.027 24.027 0 0 0 -24-24 8 8 0 0 1 0-16 40.045 40.045 0 0 1 40 40v5.333a8 8 0 0 1 -8 8z"
    fill="#353744"
  />
  <path
    d="m388 232h-160a36 36 0 0 1 0 72h160a36 36 0 0 0 0-72z"
    fill="#f08080"
  />
  <path
    d="m80 240h148a28 28 0 0 1 28 28 28 28 0 0 1 -28 28h-148z"
    fill="#d7e6f0"
  />
  <path
    d="m228 304h-164a8 8 0 0 1 0-16h164a20 20 0 0 0 0-40h-164a8 8 0 0 1 0-16h164a36 36 0 0 1 0 72z"
    fill="#f08080"
  />
  <path
    d="m333.333 232h1.334a36 36 0 0 1 36 36 36 36 0 0 1 -36 36h32a36 36 0 0 0 36-36 36 36 0 0 0 -36-36z"
    fill="#a5c3dc"
  />
  <path
    d="m400 368h-328a48 48 0 0 0 -48 48 48 48 0 0 0 48 48h328z"
    fill="#a5c3dc"
  />
  <path
    d="m272 368h-200a48 48 0 0 0 -48 48 48 48 0 0 0 48 48h200z"
    fill="#d7e6f0"
  />
  <path
    d="m416 472h-344a56 56 0 0 1 0-112h344a8 8 0 0 1 0 16h-344a40 40 0 0 0 0 80h344a8 8 0 0 1 0 16z"
    fill="#f08080"
  />
  <path
    d="m288 472h-216a56 56 0 0 1 0-112h216a8 8 0 0 1 0 16h-216a40 40 0 0 0 0 80h216a8 8 0 0 1 0 16z"
    fill="#f08080"
  />
  <path
    d="m166.141 472a6.145 6.145 0 0 0 3.406-1.031l22.453-14.969 22.453 14.969a6.145 6.145 0 0 0 3.406 1.031 6.14 6.14 0 0 0 6.141-6.141v-65.859h-64v65.859a6.14 6.14 0 0 0 6.141 6.141z"
    fill="#f04b37"
  />
  <rect
    fill="#20b2aa"
    height="56"
    rx="8"
    width="400"
    x="96"
    y="304"
  />
  <path d="m128 304h32v56h-32z" fill="#f04b37" />
  <path d="m432 304h32v56h-32z" fill="#f04b37" />
  <path
    d="m288 104a47.815 47.815 0 0 0 -32 12.232 47.993 47.993 0 0 0 -80 35.768c0 45.333 32 80 56 80h48c24 0 56-34.667 56-80a48 48 0 0 0 -48-48z"
    fill="#d7322d"
  />
  <circle cx="216" cy="136" fill="#f04b37" r="16" />
  <path
    d="m296 40a8 8 0 0 1 8 8 40 40 0 0 1 -40 40h-8a0 0 0 0 1 0 0v-8a40 40 0 0 1 40-40z"
    fill="#20b2aa"
  />
</svg>
